<?xml version="1.0" encoding="UTF-8" ?>
<!DOCTYPE svg PUBLIC "-//W3C//DTD SVG 1.1//EN" "http://www.w3.org/Graphics/SVG/1.1/DTD/svg11.dtd">
<svg width="170pt" height="80pt" viewBox="0 0 170 80" version="1.1" xmlns="http://www.w3.org/2000/svg">
<g id="#fffffffe">
<path fill="#ffffff" opacity="1.00" d=" M 70.11 12.22 C 78.55 6.28 90.05 5.43 99.39 9.71 C 112.56 15.15 125.68 20.71 138.82 26.21 C 142.42 27.71 146.44 26.87 150.14 27.90 C 158.74 30.01 165.51 38.06 165.92 46.93 C 166.15 52.03 165.94 57.14 165.98 62.24 C 159.78 62.92 153.53 62.42 147.31 62.57 C 146.47 67.44 144.35 72.27 140.33 75.33 C 133.77 80.79 123.36 80.62 116.98 74.94 C 113.23 71.88 111.29 67.24 110.49 62.57 C 93.51 62.56 76.54 62.58 59.56 62.56 C 58.75 67.48 56.58 72.34 52.51 75.40 C 45.90 80.83 35.46 80.58 29.12 74.83 C 25.42 71.78 23.58 67.17 22.73 62.56 C 16.55 62.36 10.31 63.04 4.17 62.14 C 4.24 57.41 4.10 52.67 4.21 47.94 C 4.26 39.86 9.47 32.03 16.96 28.96 C 23.27 26.19 30.30 27.46 36.97 27.18 C 42.51 26.94 48.14 27.68 53.62 26.83 C 59.38 22.27 64.17 16.56 70.11 12.22 M 69.51 16.59 C 65.60 20.03 61.88 23.68 58.03 27.19 C 74.96 27.17 91.88 27.19 108.81 27.18 C 108.81 23.79 108.81 20.41 108.81 17.03 C 104.10 15.10 99.50 12.90 94.67 11.28 C 86.11 8.49 76.25 10.67 69.51 16.59 M 111.87 18.28 C 111.88 21.25 111.88 24.21 111.89 27.18 C 118.95 27.18 126.01 27.19 133.07 27.17 C 126.02 24.16 118.94 21.24 111.87 18.28 M 14.75 33.64 C 15.69 36.29 16.58 39.39 14.90 41.96 C 13.47 44.76 10.23 45.53 7.37 45.84 C 7.20 50.39 7.24 54.94 7.26 59.49 C 12.41 59.50 17.57 59.49 22.73 59.50 C 23.56 55.11 25.23 50.70 28.65 47.67 C 34.93 41.54 45.69 41.09 52.47 46.64 C 56.57 49.70 58.74 54.57 59.56 59.50 C 76.54 59.49 93.51 59.51 110.49 59.49 C 111.29 54.84 113.23 50.21 116.96 47.16 C 123.13 41.64 133.13 41.26 139.72 46.27 C 144.09 49.31 146.44 54.37 147.31 59.50 C 152.52 59.50 157.72 59.50 162.93 59.49 C 162.62 53.02 164.09 46.01 160.87 40.04 C 157.72 33.89 150.89 29.99 144.00 30.27 C 104.65 30.24 65.31 30.26 25.96 30.26 C 21.95 30.15 18.12 31.55 14.75 33.64 M 8.10 42.88 C 11.72 42.44 13.63 39.13 12.47 35.76 C 10.58 37.83 9.10 40.25 8.10 42.88 M 36.43 46.57 C 29.61 48.69 24.96 56.05 26.10 63.13 C 26.98 70.75 34.38 76.86 42.04 76.23 C 50.19 75.96 57.15 68.18 56.26 60.02 C 56.09 50.47 45.38 43.26 36.43 46.57 M 124.35 46.51 C 117.82 48.47 113.10 55.22 113.79 62.06 C 113.99 70.21 121.91 77.02 129.99 76.22 C 138.08 75.83 144.88 68.05 144.03 59.95 C 143.74 50.52 133.27 43.35 124.35 46.51 Z" />
<path fill="#ffffff" opacity="1.00" d=" M 98.17 34.56 C 101.04 34.21 104.11 33.96 106.89 34.94 C 106.84 35.44 106.74 36.46 106.69 36.97 C 103.75 37.83 100.59 37.58 97.60 37.13 C 97.54 36.59 97.43 35.51 97.37 34.97 L 98.17 34.56 Z" />
<path fill="#ffffff" opacity="1.00" d=" M 38.34 51.49 C 43.99 49.61 50.52 53.96 50.94 59.89 C 51.74 65.53 46.75 71.05 41.05 70.78 C 36.21 70.87 31.77 66.82 31.37 62.00 C 30.77 57.41 33.89 52.73 38.34 51.49 M 39.33 54.44 C 34.55 55.58 32.71 62.30 36.34 65.66 C 39.64 69.37 46.41 67.66 47.63 62.87 C 49.33 58.05 44.17 52.81 39.33 54.44 Z" />
<path fill="#ffffff" opacity="1.00" d=" M 127.24 51.22 C 134.33 49.70 140.90 57.52 138.18 64.24 C 136.02 71.39 125.45 73.10 121.13 67.02 C 116.47 61.57 120.11 52.10 127.24 51.22 M 126.46 54.64 C 123.61 55.73 121.69 58.88 122.21 61.93 C 122.66 65.48 126.30 68.23 129.85 67.63 C 133.64 67.18 136.45 63.10 135.47 59.40 C 134.65 55.55 130.12 53.08 126.46 54.64 Z" />
</g>
</svg>
