<?xml version="1.0" ?><svg data-name="Layer 1" id="Layer_1" viewBox="0 0 128 128" xmlns="http://www.w3.org/2000/svg"><defs><style>.cls-1{opacity:0.1;}.cls-2{fill:#1072b8;}.cls-3,.cls-7{fill:#fff;}.cls-4{opacity:0.3;}.cls-5{fill:#005f8e;}.cls-6{opacity:0.2;}.cls-7{stroke:#fff;stroke-miterlimit:10;stroke-width:0.3px;}</style></defs><title/><g class="cls-1"><ellipse class="cls-2" cx="67" cy="71" rx="47.5" ry="50" transform="translate(-11.31 12.71) rotate(-10)"/></g><circle class="cls-3" cx="64" cy="64" r="45" transform="translate(-26.51 64) rotate(-45)"/><circle class="cls-2" cx="64" cy="64" r="42.5" transform="translate(-26.51 64) rotate(-45)"/><path class="cls-3" d="M71.5,81h-5V77h5a8,8,0,0,0,0-16H68.26l5-10H66.5V47H79.74L74.54,57.39A12,12,0,0,1,71.5,81Z"/><path class="cls-3" d="M59.5,81h-15V77.46L54.71,59.83A5.88,5.88,0,0,0,49.62,51H44.5V47h5.12a9.88,9.88,0,0,1,8.55,14.83L49.39,77H59.5Z"/><g class="cls-1"><circle class="cls-3" cx="64" cy="63.93" r="38.9"/></g><g class="cls-4"><path class="cls-5" d="M64,25a38.9,38.9,0,0,0-38.9,38.9s0,0,0,.07H102.9s0,0,0-.07A38.9,38.9,0,0,0,64,25Z"/></g><path class="cls-5" d="M35.95,34.95a42.52,42.52,0,0,1,48-8.49,42.51,42.51,0,1,0-37.89,76.08A42.52,42.52,0,0,1,35.95,34.95Z"/><rect class="cls-3" height="5" width="6" x="20.5" y="61.5"/><rect class="cls-3" height="5" width="6" x="101.5" y="61.5"/><path class="cls-3" d="M95.82,32.18a45,45,0,1,0,0,63.64A45,45,0,0,0,95.82,32.18ZM94.05,94.05a42.5,42.5,0,1,1,0-60.1A42.5,42.5,0,0,1,94.05,94.05Z"/><g class="cls-1"><path class="cls-3" d="M81,25a42.51,42.51,0,0,0-47,8.9c-2.59,37.66,36.22,64,60.1,60.1a42.49,42.49,0,0,0,7.82-49.33,47.88,47.88,0,0,0-6.75-9.65q-1-1.1-2.12-2.12A49.33,49.33,0,0,0,81,25Z"/></g><g class="cls-6"><path class="cls-3" d="M21.5,63.93A42.5,42.5,0,0,1,64,21.43C87.47,21.43,21.5,87.4,21.5,63.93Z"/></g><path class="cls-7" d="M60.88,93.91h2.65v.49H61.47V96h1.75v.49H61.47V98.5h-.59Z"/><path class="cls-7" d="M66.83,98.5l-1.11-1.94h-.83V98.5H64.3V93.91h1.44c.93,0,1.6.34,1.6,1.29a1.26,1.26,0,0,1-1,1.3l1.17,2Zm-1.93-2.42h.77c.71,0,1.11-.29,1.11-.89s-.39-.82-1.11-.82h-.77Z"/></svg>