<?xml version="1.0" ?><svg data-name="Layer 1" id="Layer_1" viewBox="0 0 128 128" xmlns="http://www.w3.org/2000/svg"><defs><style>.cls-1{opacity:0.1;}.cls-2{fill:#1072b8;}.cls-3{fill:#fff;}.cls-4{opacity:0.2;}</style></defs><title/><g class="cls-1"><ellipse class="cls-2" cx="67" cy="71" rx="47.5" ry="50" transform="translate(-11.31 12.71) rotate(-10)"/></g><circle class="cls-2" cx="64" cy="64" r="42.5" transform="translate(-26.51 64) rotate(-45)"/><path class="cls-3" d="M95.82,32.18a45,45,0,1,0,0,63.64A45,45,0,0,0,95.82,32.18ZM94.05,94.05a42.5,42.5,0,1,1,0-60.1A42.5,42.5,0,0,1,94.05,94.05Z"/><polygon class="cls-3" points="62.17 64.6 62.05 36.5 65.93 36.5 66.05 64.59 62.17 64.6"/><polygon class="cls-3" points="80.05 65.88 61.95 66 61.95 62.12 80.04 62 80.05 65.88"/><circle class="cls-2" cx="64" cy="64" r="3.75"/><path class="cls-3" d="M64,68.25A4.25,4.25,0,1,1,68.25,64,4.25,4.25,0,0,1,64,68.25Zm0-7.5A3.25,3.25,0,1,0,67.25,64,3.25,3.25,0,0,0,64,60.75Z"/><g class="cls-1"><circle class="cls-3" cx="64" cy="63.3" r="38.9"/></g><g class="cls-1"><path class="cls-3" d="M81,25.22a42.51,42.51,0,0,0-47,8.9c-2.59,37.66,36.22,64,60.1,60.1a42.49,42.49,0,0,0,7.82-49.33,47.88,47.88,0,0,0-6.75-9.65q-1-1.1-2.12-2.12A49.33,49.33,0,0,0,81,25.22Z"/></g><g class="cls-4"><path class="cls-3" d="M21.5,63.3A42.5,42.5,0,0,1,64,20.8C87.47,20.8,21.5,86.77,21.5,63.3Z"/></g><rect class="cls-3" height="4" width="4" x="62" y="93.25"/></svg>