<?xml version="1.0" encoding="UTF-8" ?>
<!DOCTYPE svg PUBLIC "-//W3C//DTD SVG 1.1//EN" "http://www.w3.org/Graphics/SVG/1.1/DTD/svg11.dtd">
<svg width="102pt" height="46pt" viewBox="0 0 102 46" version="1.1" xmlns="http://www.w3.org/2000/svg">
<g id="#aaaaaad7">
<path fill="#aaaaaa" d=" M 50.04 0.00 L 53.98 0.00 C 58.17 0.45 61.95 2.46 65.82 3.98 C 71.96 6.59 78.12 9.16 84.27 11.76 C 87.44 13.15 91.13 12.26 94.24 13.85 C 98.34 15.68 101.16 19.64 102.00 24.00 L 102.00 35.08 C 98.13 35.17 94.26 35.17 90.40 35.13 C 89.49 41.01 84.27 46.18 78.08 45.66 C 72.23 45.60 67.83 40.62 66.82 35.16 C 56.29 35.14 45.76 35.15 35.23 35.15 C 34.19 40.60 29.82 45.59 23.97 45.66 C 17.75 46.18 12.56 41.02 11.62 35.13 C 7.84 35.15 4.06 35.16 0.28 35.16 C -0.03 31.81 -0.05 28.45 0.08 25.10 C 0.37 19.18 5.12 13.89 10.94 12.88 C 17.67 12.10 24.53 13.21 31.23 12.36 C 37.08 7.69 41.91 0.65 50.04 0.00 M 34.26 12.66 C 44.82 12.59 55.38 12.69 65.95 12.61 C 65.91 10.53 65.90 8.45 65.88 6.37 C 60.48 4.20 54.90 0.85 48.85 2.38 C 42.70 3.53 38.64 8.67 34.26 12.66 M 68.01 7.26 C 68.02 9.05 68.02 10.83 68.02 12.62 C 72.30 12.63 76.57 12.67 80.85 12.65 C 76.62 10.76 72.29 9.07 68.01 7.26 M 7.28 16.53 C 6.90 18.31 8.21 20.25 7.02 21.94 C 6.08 23.80 4.00 24.30 2.14 24.68 C 2.15 27.42 2.14 30.15 2.12 32.89 C 5.31 32.91 8.50 32.90 11.69 32.93 C 12.50 27.02 17.82 21.92 23.96 22.46 C 29.72 22.52 34.28 27.42 35.14 32.89 C 45.73 32.91 56.32 32.91 66.91 32.89 C 67.75 27.43 72.29 22.54 78.02 22.47 C 84.14 21.91 89.57 26.98 90.32 32.91 C 93.54 32.90 96.76 32.91 99.99 32.89 C 99.78 28.96 100.66 24.71 98.78 21.06 C 96.82 17.08 92.45 14.50 88.02 14.77 C 63.69 14.73 39.36 14.78 15.02 14.74 C 12.34 14.69 9.59 15.08 7.28 16.53 M 18.72 25.78 C 12.48 28.96 12.41 38.97 18.59 42.25 C 24.47 46.10 33.28 41.09 32.83 34.05 C 33.27 27.09 24.62 22.06 18.72 25.78 M 74.49 25.52 C 67.81 28.37 67.39 38.82 73.80 42.21 C 79.68 46.15 88.53 41.12 88.05 34.04 C 88.49 27.30 80.39 22.29 74.49 25.52 Z" />
<path fill="#aaaaaa" d=" M 58.69 19.17 C 58.73 18.51 58.77 17.85 58.79 17.19 C 60.91 17.56 64.87 15.77 65.06 19.06 C 62.95 19.33 60.81 19.31 58.69 19.17 Z" />
<path fill="#aaaaaa" d=" M 77.59 27.77 C 82.26 26.74 86.64 32.26 84.38 36.54 C 82.79 40.64 76.70 41.65 73.96 38.16 C 70.49 34.79 72.94 28.38 77.59 27.77 M 76.46 30.44 C 74.10 31.80 73.72 35.46 75.94 37.14 C 78.40 39.47 82.95 37.43 82.80 34.04 C 82.98 30.91 79.09 28.67 76.46 30.44 Z" />
<path fill="#aaaaaa" d=" M 21.09 28.10 C 25.35 26.19 30.51 30.39 29.65 34.93 C 29.10 39.24 23.57 41.93 19.97 39.27 C 15.70 36.77 16.44 29.76 21.09 28.10 M 21.41 30.32 C 19.16 31.53 18.44 34.81 20.27 36.69 C 22.08 39.11 26.34 38.31 27.27 35.47 C 28.89 32.13 24.54 28.39 21.41 30.32 Z" />
</g>
</svg>
