<?xml version="1.0" encoding="utf-8"?>
<!-- Generator: Adobe Illustrator 18.1.0, SVG Export Plug-In . SVG Version: 6.00 Build 0)  -->
<svg version="1.1" id="Layer_1" xmlns="http://www.w3.org/2000/svg" xmlns:xlink="http://www.w3.org/1999/xlink" x="0px" y="0px"
	 viewBox="0 0 512 512" enable-background="new 0 0 512 512" xml:space="preserve">
<g>
	<path fill="none" d="M182.8,282.3c-9.9-4.5-21.9-9.5-33.8-13.3c-10.5-3.3-21-5.8-30.2-6.3c-7.5-0.4-14.1,22.1-5.9,34.1
		c4.1,6,10,5.9,25.1,5.9l11,0l30.7,0.1C189.4,301.5,192.8,286.9,182.8,282.3z"/>
	<path fill="none" d="M301.7,321.9h-52.5h-4.1h-52.5c-2.6,0-4.7,1.9-4.7,4.2v23.4c0,2.3,2.1,4.2,4.7,4.2h52.5h4.1h52.5
		c2.6,0,4.7-1.9,4.7-4.2v-23.4C306.4,323.8,304.3,321.9,301.7,321.9z"/>
	<path fill="#333333" d="M241.8,219.5H143h-8.4l0,0h0l4.5-9.3l3.9-8l18.3-38h0.1l28.3,0l55.5,0v0h2h1.6c1.9-4.8,4.1-9.5,6.5-14h-49
		h-40.5c-6.2-0.3-11.1,3.4-15.3,9.6l-7.5,16l-18.8,39.9c-0.8,1.2-5.2,0.8-6.8,0.6c-8.1-1.4,1.7-10.8-15.6-11c-2.4,0-23.5-1-25.5,0.6
		c-1.8,1.4-11.1,18.5,0.3,22.6l17.2-0.1c4.3,0,2.8-2,11.1-2c2,0.1,2.2,2.1,1,3.7l-15.4,20.3c-3.6,2.9-4.7,6.8-4.6,11.3
		c0,14.7,0,29.3,0,44c0,2.8,5,5.9,5,8.7l0.3,66.1l61.5,0l0-11l94.7-0.1l94.7,0.1l0,11l61.5,0l0.3-66.1c0-1.1,0.8-2.3,1.8-3.5
		c-14.8,6.9-31.3,10.8-48.7,10.8C297.4,321.6,248.5,276.9,241.8,219.5z M179.7,302.9l-30.7-0.1l-11,0c-15.1,0-21.1,0.1-25.1-5.9
		c-8.2-12-1.5-34.5,5.9-34.1c9.1,0.5,19.7,3,30.2,6.3c12,3.8,23.9,8.7,33.8,13.3C192.8,286.9,189.4,301.5,179.7,302.9z M306.4,349.5
		c0,2.3-2.1,4.2-4.7,4.2h-52.5h-4.1h-52.5c-2.6,0-4.7-1.9-4.7-4.2v-23.4c0-2.3,2.1-4.2,4.7-4.2h52.5h4.1h52.5c2.6,0,4.7,1.9,4.7,4.2
		V349.5z"/>
	<path fill="#333333" d="M356.7,111.6c-52,0-94.3,42.3-94.3,94.3c0,52,42.3,94.3,94.3,94.3c52,0,94.3-42.3,94.3-94.3
		C451,153.9,408.7,111.6,356.7,111.6z M383.4,258.4c-6.3,3.9-13.7,6.2-22.3,6.8V282H353v-16.6c-11-1.2-19.1-3.6-24.5-7.2
		c-9.5-6.4-14.2-17.3-14-32.7H337c0.8,7,1.9,11.7,3.3,14.1c2.2,3.7,6.4,6.1,12.8,7.3v-35.6l-6.8-2c-10.6-3.1-18.1-7.4-22.5-13
		c-4.4-5.6-6.5-12.3-6.5-20.1c0-5.2,0.8-9.9,2.5-14.1c1.7-4.2,4.1-7.9,7.1-10.9c3.9-3.9,8.3-6.7,13.2-8.2c2.9-0.9,7.3-1.6,12.9-2.1
		v-11.1h8.1v11.3c9,0.7,16.1,2.9,21.2,6.7c9.4,5.9,14.2,15.6,14.5,28.9h-21.9c-0.4-4.9-1.3-8.6-2.5-10.8c-2.1-3.9-5.9-6.1-11.4-6.5
		v31.8c13.2,4.6,22,8.6,26.6,12.1c7.5,5.8,11.2,14.1,11.2,24.7C398.9,241.9,393.7,252.1,383.4,258.4z"/>
	<path fill="#333333" d="M370.9,219.1c-1.9-1.6-5.2-3.3-9.8-5v32.6c4.3-0.6,7.5-1.6,9.5-3c3.5-2.6,5.2-7,5.2-13.3
		C375.8,225.6,374.1,221.8,370.9,219.1z"/>
	<path fill="#333333" d="M338.7,173.5c0,4.7,1.8,8.4,5.3,11.1c1.9,1.5,4.9,2.9,9,4.2v-29.3c-4.8,0.1-8.4,1.4-10.8,3.9
		C339.9,165.9,338.7,169.3,338.7,173.5z"/>
</g>
</svg>
