<?xml version="1.0" encoding="UTF-8" ?>
<!DOCTYPE svg PUBLIC "-//W3C//DTD SVG 1.1//EN" "http://www.w3.org/Graphics/SVG/1.1/DTD/svg11.dtd">
<svg width="57pt" height="57pt" viewBox="0 0 57 57" version="1.1" xmlns="http://www.w3.org/2000/svg">
<g id="#ffffffff">
<path fill="#ffffff" opacity="1.00" d=" M 19.30 1.63 C 32.82 -3.40 49.21 3.91 54.66 17.21 C 60.92 30.80 54.25 48.44 40.50 54.38 C 26.62 61.23 8.18 54.22 2.42 39.84 C -4.41 25.31 4.03 6.41 19.30 1.63 M 11.94 9.92 C 5.49 15.57 2.37 24.69 4.02 33.11 C 5.08 39.40 8.87 44.95 13.84 48.84 C 15.62 48.42 17.46 48.13 19.17 47.45 C 21.23 46.27 22.29 44.04 23.48 42.09 C 19.54 39.31 17.73 34.74 15.29 30.78 C 14.03 28.92 14.21 26.30 16.26 25.13 C 15.56 20.93 15.41 15.90 18.68 12.67 C 23.89 7.74 33.13 7.73 38.37 12.61 C 41.67 15.83 41.58 20.89 40.87 25.11 C 42.91 26.31 43.09 28.98 41.80 30.83 C 39.37 34.79 37.54 39.31 33.63 42.11 C 34.81 44.01 35.82 46.19 37.81 47.38 C 39.55 48.11 41.42 48.40 43.24 48.84 C 50.23 43.62 54.41 34.77 53.38 26.04 C 52.56 16.68 45.91 8.20 37.06 5.09 C 28.63 1.95 18.59 3.86 11.94 9.92 Z" />
</g>
</svg>
